<svg xmlns="http://www.w3.org/2000/svg" width="1280" height="720" viewBox="0 0 1280 720">
<metadata>{&quot;frame_spec&quot;: {&quot;background&quot;: &quot;奥吉吉亚林地与海岸 geography; exits/pressure source remain legible&quot;, &quot;camera_height&quot;: &quot;1.4m&quot;, &quot;characters&quot;: [&quot;奥德修斯&quot;, &quot;卡吕普索&quot;], &quot;composition&quot;: &quot;MS TACTIC composition for 奥德修斯, 卡吕普索&quot;, &quot;continuity_state&quot;: &quot;props=青铜斧,手钻,木楔,绳; wardrobe=W-OD-05-OGYGIA-RAFT-SALT; hmu=HMU-OD-SALT-CUTS-PROGRESSION; unit=S5; tags=cave-adaptable,shore,work-montage&quot;, &quot;foreground&quot;: &quot;青铜斧&quot;, &quot;frame_id&quot;: &quot;EP05-S03-SH003-F01&quot;, &quot;lighting&quot;: &quot;MIXED motivated source; preserve unit color and practical texture&quot;, &quot;midground&quot;: &quot;奥德修斯, 卡吕普索&quot;, &quot;movement&quot;: &quot;DOLLY_TRACK START&quot;, &quot;practical_element&quot;: &quot;青铜斧&quot;, &quot;scene_id&quot;: &quot;EP05-S03&quot;, &quot;shot_id&quot;: &quot;EP05-S03-SH003&quot;, &quot;vfx_layer&quot;: &quot;NONE&quot;}, &quot;source_frame_sha256&quot;: &quot;1aefdc4ba69e262a3cecf47903b6b73bbbea2fb9c347cdf37440637ecaff7bb8&quot;}</metadata>
<rect width="1280" height="720" fill="#e0dccf"/>
<rect x="0" y="0" width="1280" height="76" fill="#171816"/>
<text x="28" y="34" fill="#f1ecdc" font-family="sans-serif" font-size="24" font-weight="700">EP05-S03-SH003-F01</text>
<text x="28" y="61" fill="#aca691" font-family="sans-serif" font-size="15">EP05-S03-SH003 · EP05-S03 · MUST · TECHNICAL</text>
<path d="M 0 610 L 320 365 L 960 365 L 1280 610" fill="none" stroke="#62645e" stroke-width="3"/>
<line x1="0" y1="365" x2="1280" y2="365" stroke="#62645e" stroke-width="2" stroke-dasharray="9 7"/>
<line x1="640" y1="365" x2="640" y2="610" stroke="#62645e" stroke-width="2" stroke-dasharray="7 7"/>
<rect x="80" y="175" width="170" height="375" fill="none" stroke="#242522" stroke-width="5"/>
<rect x="1030" y="175" width="170" height="375" fill="none" stroke="#242522" stroke-width="5"/>
<circle cx="521.3" cy="408.1" r="20.6" fill="none" stroke="#5e7478" stroke-width="5"/>
<line x1="521.3" y1="428.7" x2="521.3" y2="482.0" stroke="#5e7478" stroke-width="7"/>
<line x1="521.3" y1="422.0" x2="485.2" y2="462.0" stroke="#5e7478" stroke-width="6"/>
<line x1="521.3" y1="422.0" x2="557.5" y2="457.0" stroke="#5e7478" stroke-width="6"/>
<line x1="521.3" y1="482.0" x2="495.5" y2="552.0" stroke="#5e7478" stroke-width="7"/>
<line x1="521.3" y1="482.0" x2="547.1" y2="552.0" stroke="#5e7478" stroke-width="7"/>
<rect x="451.3" y="556.0" width="140" height="25" fill="#e0dccf" opacity="0.94"/>
<text x="457.3" y="574.0" fill="#242522" font-family="sans-serif" font-size="14">奥德修斯</text>
<circle cx="760.7" cy="411.9" r="20.2" fill="none" stroke="#242522" stroke-width="5"/>
<line x1="760.7" y1="432.1" x2="760.7" y2="483.5" stroke="#242522" stroke-width="7"/>
<line x1="760.7" y1="423.5" x2="725.4" y2="463.5" stroke="#242522" stroke-width="6"/>
<line x1="760.7" y1="423.5" x2="795.9" y2="458.5" stroke="#242522" stroke-width="6"/>
<line x1="760.7" y1="483.5" x2="735.5" y2="553.5" stroke="#242522" stroke-width="7"/>
<line x1="760.7" y1="483.5" x2="785.9" y2="553.5" stroke="#242522" stroke-width="7"/>
<rect x="690.7" y="557.5" width="140" height="25" fill="#e0dccf" opacity="0.94"/>
<text x="696.7" y="575.5" fill="#242522" font-family="sans-serif" font-size="14">卡吕普索</text>
<line x1="235" y1="630" x2="1035" y2="630" stroke="#5e7478" stroke-width="6"/>
<path d="M 1035 630 l -18 -12 l 0 24 z" fill="#5e7478"/>
<text x="28" y="655" fill="#242522" font-family="sans-serif" font-size="15">MOVE: DOLLY_TRACK START</text>
<rect x="0" y="676" width="1280" height="44" fill="#171816"/>
<text x="20" y="703" fill="#f1ecdc" font-family="sans-serif" font-size="14">青铜斧 / 奥德修斯, 卡吕普索 / 奥吉吉亚林地与海岸 geography; exits/pressure s…</text>
<text x="790" y="703" fill="#aca691" font-family="sans-serif" font-size="13">props=青铜斧,手钻,木楔,绳; wardrobe=W-OD-05-OGYGIA-RAFT-SALT; hmu=HMU-…</text>
</svg>
