<svg xmlns="http://www.w3.org/2000/svg" width="1280" height="720" viewBox="0 0 1280 720">
<metadata>{&quot;frame_spec&quot;: {&quot;background&quot;: &quot;奥吉吉亚洞穴／外景·海岸 geography; exits/pressure source remain legible&quot;, &quot;camera_height&quot;: &quot;1.4m&quot;, &quot;characters&quot;: [&quot;卡吕普索&quot;, &quot;赫尔墨斯&quot;, &quot;奥德修斯&quot;], &quot;composition&quot;: &quot;MCU REVERSAL composition for 奥德修斯, 卡吕普索, 赫尔墨斯&quot;, &quot;continuity_state&quot;: &quot;props=织机,金杯,使者杖,未完成船模; wardrobe=W-OD-05-OGYGIA-RAFT-SALT; hmu=HMU-OD-SALT-CUTS-PROGRESSION; unit=S5; tags=cave-adaptable,divine-medium&quot;, &quot;foreground&quot;: &quot;金杯&quot;, &quot;frame_id&quot;: &quot;EP05-S01-SH006-F02&quot;, &quot;lighting&quot;: &quot;DAY motivated source; preserve unit color and practical texture&quot;, &quot;midground&quot;: &quot;奥德修斯, 卡吕普索, 赫尔墨斯&quot;, &quot;movement&quot;: &quot;PUSH_PULL END&quot;, &quot;practical_element&quot;: &quot;金杯&quot;, &quot;scene_id&quot;: &quot;EP05-S01&quot;, &quot;shot_id&quot;: &quot;EP05-S01-SH006&quot;, &quot;vfx_layer&quot;: &quot;MEDIUM&quot;}, &quot;source_frame_sha256&quot;: &quot;e613d1063cf49494da20a177bcc38f1acf6a0ef6b823a61f4b223c4864537e7c&quot;}</metadata>
<rect width="1280" height="720" fill="#d9cfc8"/>
<rect x="0" y="0" width="1280" height="76" fill="#171816"/>
<text x="28" y="34" fill="#f1ecdc" font-family="sans-serif" font-size="24" font-weight="700">EP05-S01-SH006-F02</text>
<text x="28" y="61" fill="#aca691" font-family="sans-serif" font-size="15">EP05-S01-SH006 · EP05-S01 · MUST · TECHNICAL</text>
<path d="M 0 610 L 320 365 L 960 365 L 1280 610" fill="none" stroke="#62645e" stroke-width="3"/>
<line x1="0" y1="365" x2="1280" y2="365" stroke="#62645e" stroke-width="2" stroke-dasharray="9 7"/>
<line x1="640" y1="365" x2="640" y2="610" stroke="#62645e" stroke-width="2" stroke-dasharray="7 7"/>
<rect x="80" y="175" width="170" height="375" fill="none" stroke="#242522" stroke-width="5"/>
<rect x="1030" y="175" width="170" height="375" fill="none" stroke="#242522" stroke-width="5"/>
<circle cx="413.5" cy="343.6" r="32.1" fill="none" stroke="#7b6745" stroke-width="5"/>
<line x1="413.5" y1="375.6" x2="413.5" y2="472.2" stroke="#7b6745" stroke-width="7"/>
<line x1="413.5" y1="412.2" x2="357.4" y2="452.2" stroke="#7b6745" stroke-width="6"/>
<line x1="413.5" y1="412.2" x2="469.6" y2="447.2" stroke="#7b6745" stroke-width="6"/>
<line x1="413.5" y1="472.2" x2="373.4" y2="542.2" stroke="#7b6745" stroke-width="7"/>
<line x1="413.5" y1="472.2" x2="453.6" y2="542.2" stroke="#7b6745" stroke-width="7"/>
<rect x="343.5" y="546.2" width="140" height="25" fill="#d9cfc8" opacity="0.94"/>
<text x="349.5" y="564.2" fill="#242522" font-family="sans-serif" font-size="14">卡吕普索</text>
<circle cx="667.0" cy="362.0" r="29.5" fill="none" stroke="#242522" stroke-width="5"/>
<line x1="667.0" y1="391.5" x2="667.0" y2="478.2" stroke="#242522" stroke-width="7"/>
<line x1="667.0" y1="418.2" x2="615.4" y2="458.2" stroke="#242522" stroke-width="6"/>
<line x1="667.0" y1="418.2" x2="718.6" y2="453.2" stroke="#242522" stroke-width="6"/>
<line x1="667.0" y1="478.2" x2="630.1" y2="548.2" stroke="#242522" stroke-width="7"/>
<line x1="667.0" y1="478.2" x2="703.9" y2="548.2" stroke="#242522" stroke-width="7"/>
<rect x="597.0" y="552.2" width="140" height="25" fill="#d9cfc8" opacity="0.94"/>
<text x="603.0" y="570.2" fill="#242522" font-family="sans-serif" font-size="14">赫尔墨斯</text>
<circle cx="868.5" cy="315.9" r="36.0" fill="none" stroke="#242522" stroke-width="5"/>
<line x1="868.5" y1="351.9" x2="868.5" y2="463.2" stroke="#242522" stroke-width="7"/>
<line x1="868.5" y1="403.2" x2="805.6" y2="443.2" stroke="#242522" stroke-width="6"/>
<line x1="868.5" y1="403.2" x2="931.4" y2="438.2" stroke="#242522" stroke-width="6"/>
<line x1="868.5" y1="463.2" x2="823.5" y2="533.2" stroke="#242522" stroke-width="7"/>
<line x1="868.5" y1="463.2" x2="913.5" y2="533.2" stroke="#242522" stroke-width="7"/>
<rect x="798.5" y="537.2" width="140" height="25" fill="#d9cfc8" opacity="0.94"/>
<text x="804.5" y="555.2" fill="#242522" font-family="sans-serif" font-size="14">奥德修斯</text>
<line x1="235" y1="630" x2="1035" y2="630" stroke="#7b6745" stroke-width="6"/>
<path d="M 1035 630 l -18 -12 l 0 24 z" fill="#7b6745"/>
<text x="28" y="655" fill="#242522" font-family="sans-serif" font-size="15">MOVE: PUSH_PULL END</text>
<rect x="25" y="100" width="1230" height="495" fill="none" stroke="#65546d" stroke-width="4" stroke-dasharray="14 10"/>
<text x="1010" y="125" fill="#65546d" font-family="sans-serif" font-size="15" font-weight="700">VFX LAYER / CLEAN PLATE</text>
<rect x="0" y="676" width="1280" height="44" fill="#171816"/>
<text x="20" y="703" fill="#f1ecdc" font-family="sans-serif" font-size="14">金杯 / 奥德修斯, 卡吕普索, 赫尔墨斯 / 奥吉吉亚洞穴／外景·海岸 geography; exits/pressur…</text>
<text x="790" y="703" fill="#aca691" font-family="sans-serif" font-size="13">props=织机,金杯,使者杖,未完成船模; wardrobe=W-OD-05-OGYGIA-RAFT-SALT; hmu=…</text>
</svg>
