<svg xmlns="http://www.w3.org/2000/svg" width="1280" height="720" viewBox="0 0 1280 720">
<metadata>{&quot;frame_spec&quot;: {&quot;background&quot;: &quot;独眼巨人洞穴 geography; exits/pressure source remain legible&quot;, &quot;camera_height&quot;: &quot;2.4m&quot;, &quot;characters&quot;: [&quot;奥德修斯&quot;, &quot;波吕斐摩斯&quot;, &quot;船员&quot;], &quot;composition&quot;: &quot;WS CONSEQUENCE composition for 波吕斐摩斯, 船员, 奥德修斯&quot;, &quot;continuity_state&quot;: &quot;props=橄榄木桩,火堆,玛戎烈酒,奶碗; wardrobe=W-OD-10-VOYAGE-MEMORY; hmu=HMU-OD-VOYAGE-10; unit=S5; tags=cave-adaptable,creature-medium,fire&quot;, &quot;foreground&quot;: &quot;橄榄木桩&quot;, &quot;frame_id&quot;: &quot;EP10-S02-SH008-F01&quot;, &quot;lighting&quot;: &quot;MIXED motivated source; preserve unit color and practical texture&quot;, &quot;midground&quot;: &quot;波吕斐摩斯, 船员, 奥德修斯&quot;, &quot;movement&quot;: &quot;STATIC SINGLE&quot;, &quot;practical_element&quot;: &quot;橄榄木桩&quot;, &quot;scene_id&quot;: &quot;EP10-S02&quot;, &quot;shot_id&quot;: &quot;EP10-S02-SH008&quot;, &quot;vfx_layer&quot;: &quot;NONE&quot;}, &quot;source_frame_sha256&quot;: &quot;284854b433c9cd42b2fad57f2624c397d79529195ea2bc02bffccf5d00b7658b&quot;}</metadata>
<rect width="1280" height="720" fill="#d9cfc8"/>
<rect x="0" y="0" width="1280" height="76" fill="#171816"/>
<text x="28" y="34" fill="#f1ecdc" font-family="sans-serif" font-size="24" font-weight="700">EP10-S02-SH008-F01</text>
<text x="28" y="61" fill="#aca691" font-family="sans-serif" font-size="15">EP10-S02-SH008 · EP10-S02 · MUST · TECHNICAL</text>
<path d="M 0 610 L 320 365 L 960 365 L 1280 610" fill="none" stroke="#62645e" stroke-width="3"/>
<line x1="0" y1="365" x2="1280" y2="365" stroke="#62645e" stroke-width="2" stroke-dasharray="9 7"/>
<line x1="640" y1="365" x2="640" y2="610" stroke="#62645e" stroke-width="2" stroke-dasharray="7 7"/>
<rect x="80" y="175" width="170" height="375" fill="none" stroke="#242522" stroke-width="5"/>
<rect x="1030" y="175" width="170" height="375" fill="none" stroke="#242522" stroke-width="5"/>
<circle cx="449.5" cy="427.0" r="14.8" fill="none" stroke="#7b6745" stroke-width="5"/>
<line x1="449.5" y1="441.8" x2="449.5" y2="473.0" stroke="#7b6745" stroke-width="7"/>
<line x1="449.5" y1="413.0" x2="423.6" y2="453.0" stroke="#7b6745" stroke-width="6"/>
<line x1="449.5" y1="413.0" x2="475.4" y2="448.0" stroke="#7b6745" stroke-width="6"/>
<line x1="449.5" y1="473.0" x2="431.0" y2="543.0" stroke="#7b6745" stroke-width="7"/>
<line x1="449.5" y1="473.0" x2="468.0" y2="543.0" stroke="#7b6745" stroke-width="7"/>
<rect x="379.5" y="547.0" width="140" height="25" fill="#d9cfc8" opacity="0.94"/>
<text x="385.5" y="565.0" fill="#242522" font-family="sans-serif" font-size="14">奥德修斯</text>
<circle cx="615.0" cy="428.5" r="14.7" fill="none" stroke="#242522" stroke-width="5"/>
<line x1="615.0" y1="443.1" x2="615.0" y2="473.8" stroke="#242522" stroke-width="7"/>
<line x1="615.0" y1="413.8" x2="589.3" y2="453.8" stroke="#242522" stroke-width="6"/>
<line x1="615.0" y1="413.8" x2="640.7" y2="448.8" stroke="#242522" stroke-width="6"/>
<line x1="615.0" y1="473.8" x2="596.7" y2="543.8" stroke="#242522" stroke-width="7"/>
<line x1="615.0" y1="473.8" x2="633.3" y2="543.8" stroke="#242522" stroke-width="7"/>
<rect x="545.0" y="547.8" width="140" height="25" fill="#d9cfc8" opacity="0.94"/>
<text x="551.0" y="565.8" fill="#242522" font-family="sans-serif" font-size="14">波吕斐摩斯</text>
<circle cx="831.5" cy="446.2" r="12.9" fill="none" stroke="#242522" stroke-width="5"/>
<line x1="831.5" y1="459.0" x2="831.5" y2="482.8" stroke="#242522" stroke-width="7"/>
<line x1="831.5" y1="422.8" x2="809.0" y2="462.8" stroke="#242522" stroke-width="6"/>
<line x1="831.5" y1="422.8" x2="854.0" y2="457.8" stroke="#242522" stroke-width="6"/>
<line x1="831.5" y1="482.8" x2="815.4" y2="552.8" stroke="#242522" stroke-width="7"/>
<line x1="831.5" y1="482.8" x2="847.6" y2="552.8" stroke="#242522" stroke-width="7"/>
<rect x="761.5" y="556.8" width="140" height="25" fill="#d9cfc8" opacity="0.94"/>
<text x="767.5" y="574.8" fill="#242522" font-family="sans-serif" font-size="14">船员</text>
<line x1="1035" y1="630" x2="235" y2="630" stroke="#7b6745" stroke-width="6"/>
<path d="M 235 630 l 18 -12 l 0 24 z" fill="#7b6745"/>
<text x="28" y="655" fill="#242522" font-family="sans-serif" font-size="15">MOVE: STATIC SINGLE</text>
<rect x="0" y="676" width="1280" height="44" fill="#171816"/>
<text x="20" y="703" fill="#f1ecdc" font-family="sans-serif" font-size="14">橄榄木桩 / 波吕斐摩斯, 船员, 奥德修斯 / 独眼巨人洞穴 geography; exits/pressure sour…</text>
<text x="790" y="703" fill="#aca691" font-family="sans-serif" font-size="13">props=橄榄木桩,火堆,玛戎烈酒,奶碗; wardrobe=W-OD-10-VOYAGE-MEMORY; hmu=HMU…</text>
</svg>
