<svg xmlns="http://www.w3.org/2000/svg" width="1280" height="720" viewBox="0 0 1280 720">
<metadata>{&quot;frame_spec&quot;: {&quot;background&quot;: &quot;独眼巨人洞穴 geography; exits/pressure source remain legible&quot;, &quot;camera_height&quot;: &quot;0.8m&quot;, &quot;characters&quot;: [&quot;奥德修斯&quot;, &quot;波吕斐摩斯&quot;, &quot;船员&quot;], &quot;composition&quot;: &quot;INSERT EVIDENCE composition for 青铜剑 custody/state&quot;, &quot;continuity_state&quot;: &quot;props=青铜剑,巨石,整树木杖,羊圈; wardrobe=W-OD-10-VOYAGE-MEMORY; hmu=HMU-OD-VOYAGE-10; unit=S5; tags=blood,cave-adaptable,creature-medium&quot;, &quot;foreground&quot;: &quot;巨石&quot;, &quot;frame_id&quot;: &quot;EP10-S01-SH006-F02&quot;, &quot;lighting&quot;: &quot;MIXED motivated source; preserve unit color and practical texture&quot;, &quot;midground&quot;: &quot;青铜剑 custody/state&quot;, &quot;movement&quot;: &quot;RIGGED_POV END&quot;, &quot;practical_element&quot;: &quot;巨石&quot;, &quot;scene_id&quot;: &quot;EP10-S01&quot;, &quot;shot_id&quot;: &quot;EP10-S01-SH006&quot;, &quot;vfx_layer&quot;: &quot;NONE&quot;}, &quot;source_frame_sha256&quot;: &quot;af95879e4cd9ab408c47043c6eb58ad884250594e7460a8013b2b906ddc1434a&quot;}</metadata>
<rect width="1280" height="720" fill="#d5cdbc"/>
<rect x="0" y="0" width="1280" height="76" fill="#171816"/>
<text x="28" y="34" fill="#f1ecdc" font-family="sans-serif" font-size="24" font-weight="700">EP10-S01-SH006-F02</text>
<text x="28" y="61" fill="#aca691" font-family="sans-serif" font-size="15">EP10-S01-SH006 · EP10-S01 · MUST · TECHNICAL</text>
<path d="M 0 610 L 320 365 L 960 365 L 1280 610" fill="none" stroke="#62645e" stroke-width="3"/>
<line x1="0" y1="365" x2="1280" y2="365" stroke="#62645e" stroke-width="2" stroke-dasharray="9 7"/>
<line x1="640" y1="365" x2="640" y2="610" stroke="#62645e" stroke-width="2" stroke-dasharray="7 7"/>
<rect x="80" y="175" width="170" height="375" fill="none" stroke="#242522" stroke-width="5"/>
<rect x="1030" y="175" width="170" height="375" fill="none" stroke="#242522" stroke-width="5"/>
<circle cx="457.5" cy="394.8" r="21.4" fill="none" stroke="#7b6745" stroke-width="5"/>
<line x1="457.5" y1="416.2" x2="457.5" y2="472.2" stroke="#7b6745" stroke-width="7"/>
<line x1="457.5" y1="412.2" x2="420.1" y2="452.2" stroke="#7b6745" stroke-width="6"/>
<line x1="457.5" y1="412.2" x2="494.9" y2="447.2" stroke="#7b6745" stroke-width="6"/>
<line x1="457.5" y1="472.2" x2="430.8" y2="542.2" stroke="#7b6745" stroke-width="7"/>
<line x1="457.5" y1="472.2" x2="484.2" y2="542.2" stroke="#7b6745" stroke-width="7"/>
<rect x="387.5" y="546.2" width="140" height="25" fill="#d5cdbc" opacity="0.94"/>
<text x="393.5" y="564.2" fill="#242522" font-family="sans-serif" font-size="14">奥德修斯</text>
<circle cx="629.0" cy="400.1" r="20.7" fill="none" stroke="#242522" stroke-width="5"/>
<line x1="629.0" y1="420.9" x2="629.0" y2="474.5" stroke="#242522" stroke-width="7"/>
<line x1="629.0" y1="414.5" x2="592.7" y2="454.5" stroke="#242522" stroke-width="6"/>
<line x1="629.0" y1="414.5" x2="665.3" y2="449.5" stroke="#242522" stroke-width="6"/>
<line x1="629.0" y1="474.5" x2="603.1" y2="544.5" stroke="#242522" stroke-width="7"/>
<line x1="629.0" y1="474.5" x2="654.9" y2="544.5" stroke="#242522" stroke-width="7"/>
<rect x="559.0" y="548.5" width="140" height="25" fill="#d5cdbc" opacity="0.94"/>
<text x="565.0" y="566.5" fill="#242522" font-family="sans-serif" font-size="14">波吕斐摩斯</text>
<circle cx="855.5" cy="414.4" r="19.0" fill="none" stroke="#242522" stroke-width="5"/>
<line x1="855.5" y1="433.4" x2="855.5" y2="480.5" stroke="#242522" stroke-width="7"/>
<line x1="855.5" y1="420.5" x2="822.2" y2="460.5" stroke="#242522" stroke-width="6"/>
<line x1="855.5" y1="420.5" x2="888.8" y2="455.5" stroke="#242522" stroke-width="6"/>
<line x1="855.5" y1="480.5" x2="831.7" y2="550.5" stroke="#242522" stroke-width="7"/>
<line x1="855.5" y1="480.5" x2="879.3" y2="550.5" stroke="#242522" stroke-width="7"/>
<rect x="785.5" y="554.5" width="140" height="25" fill="#d5cdbc" opacity="0.94"/>
<text x="791.5" y="572.5" fill="#242522" font-family="sans-serif" font-size="14">船员</text>
<line x1="1035" y1="630" x2="235" y2="630" stroke="#7b6745" stroke-width="6"/>
<path d="M 235 630 l 18 -12 l 0 24 z" fill="#7b6745"/>
<text x="28" y="655" fill="#242522" font-family="sans-serif" font-size="15">MOVE: RIGGED_POV END</text>
<rect x="0" y="676" width="1280" height="44" fill="#171816"/>
<text x="20" y="703" fill="#f1ecdc" font-family="sans-serif" font-size="14">巨石 / 青铜剑 custody/state / 独眼巨人洞穴 geography; exits/pressure sour…</text>
<text x="790" y="703" fill="#aca691" font-family="sans-serif" font-size="13">props=青铜剑,巨石,整树木杖,羊圈; wardrobe=W-OD-10-VOYAGE-MEMORY; hmu=HMU-…</text>
</svg>
