<svg xmlns="http://www.w3.org/2000/svg" width="1280" height="720" viewBox="0 0 1280 720">
<metadata>{&quot;frame_spec&quot;: {&quot;background&quot;: &quot;独眼巨人洞穴 geography; exits/pressure source remain legible&quot;, &quot;camera_height&quot;: &quot;2.4m&quot;, &quot;characters&quot;: [&quot;奥德修斯&quot;, &quot;波吕斐摩斯&quot;, &quot;船员&quot;, &quot;洞外独眼巨人们&quot;], &quot;composition&quot;: &quot;WS REVERSAL composition for 船员, 洞外独眼巨人们, 奥德修斯&quot;, &quot;continuity_state&quot;: &quot;props=燃烧木桩,巨石,水桶; wardrobe=W-OD-10-VOYAGE-MEMORY; hmu=HMU-OD-VOYAGE-10; unit=S5; tags=blood,cave-adaptable,creature-medium,fire,stunt&quot;, &quot;foreground&quot;: &quot;燃烧木桩&quot;, &quot;frame_id&quot;: &quot;EP10-S03-SH007-F01&quot;, &quot;lighting&quot;: &quot;NIGHT motivated source; preserve unit color and practical texture&quot;, &quot;midground&quot;: &quot;船员, 洞外独眼巨人们, 奥德修斯&quot;, &quot;movement&quot;: &quot;HANDHELD_CONTROLLED START&quot;, &quot;practical_element&quot;: &quot;燃烧木桩&quot;, &quot;scene_id&quot;: &quot;EP10-S03&quot;, &quot;shot_id&quot;: &quot;EP10-S03-SH007&quot;, &quot;vfx_layer&quot;: &quot;NONE&quot;}, &quot;source_frame_sha256&quot;: &quot;84aea378b0f257420f699c0683781dbc8da69f7e8564e467fd8ce7c48ea43f6a&quot;}</metadata>
<rect width="1280" height="720" fill="#c9d3d0"/>
<rect x="0" y="0" width="1280" height="76" fill="#171816"/>
<text x="28" y="34" fill="#f1ecdc" font-family="sans-serif" font-size="24" font-weight="700">EP10-S03-SH007-F01</text>
<text x="28" y="61" fill="#aca691" font-family="sans-serif" font-size="15">EP10-S03-SH007 · EP10-S03 · MUST · TECHNICAL</text>
<path d="M 0 610 L 320 365 L 960 365 L 1280 610" fill="none" stroke="#62645e" stroke-width="3"/>
<line x1="0" y1="365" x2="1280" y2="365" stroke="#62645e" stroke-width="2" stroke-dasharray="9 7"/>
<line x1="640" y1="365" x2="640" y2="610" stroke="#62645e" stroke-width="2" stroke-dasharray="7 7"/>
<rect x="80" y="175" width="170" height="375" fill="none" stroke="#242522" stroke-width="5"/>
<rect x="1030" y="175" width="170" height="375" fill="none" stroke="#242522" stroke-width="5"/>
<circle cx="358.0" cy="416.7" r="15.9" fill="none" stroke="#7b6745" stroke-width="5"/>
<line x1="358.0" y1="432.6" x2="358.0" y2="467.8" stroke="#7b6745" stroke-width="7"/>
<line x1="358.0" y1="407.8" x2="330.2" y2="447.8" stroke="#7b6745" stroke-width="6"/>
<line x1="358.0" y1="407.8" x2="385.8" y2="442.8" stroke="#7b6745" stroke-width="6"/>
<line x1="358.0" y1="467.8" x2="338.2" y2="537.8" stroke="#7b6745" stroke-width="7"/>
<line x1="358.0" y1="467.8" x2="377.8" y2="537.8" stroke="#7b6745" stroke-width="7"/>
<rect x="288.0" y="541.8" width="140" height="25" fill="#c9d3d0" opacity="0.94"/>
<text x="294.0" y="559.8" fill="#242522" font-family="sans-serif" font-size="14">奥德修斯</text>
<circle cx="541.0" cy="407.8" r="16.8" fill="none" stroke="#242522" stroke-width="5"/>
<line x1="541.0" y1="424.6" x2="541.0" y2="463.2" stroke="#242522" stroke-width="7"/>
<line x1="541.0" y1="403.2" x2="511.6" y2="443.2" stroke="#242522" stroke-width="6"/>
<line x1="541.0" y1="403.2" x2="570.4" y2="438.2" stroke="#242522" stroke-width="6"/>
<line x1="541.0" y1="463.2" x2="520.0" y2="533.2" stroke="#242522" stroke-width="7"/>
<line x1="541.0" y1="463.2" x2="562.0" y2="533.2" stroke="#242522" stroke-width="7"/>
<rect x="471.0" y="537.2" width="140" height="25" fill="#c9d3d0" opacity="0.94"/>
<text x="477.0" y="555.2" fill="#242522" font-family="sans-serif" font-size="14">波吕斐摩斯</text>
<circle cx="732.0" cy="432.9" r="14.2" fill="none" stroke="#242522" stroke-width="5"/>
<line x1="732.0" y1="447.1" x2="732.0" y2="476.0" stroke="#242522" stroke-width="7"/>
<line x1="732.0" y1="416.0" x2="707.1" y2="456.0" stroke="#242522" stroke-width="6"/>
<line x1="732.0" y1="416.0" x2="756.9" y2="451.0" stroke="#242522" stroke-width="6"/>
<line x1="732.0" y1="476.0" x2="714.2" y2="546.0" stroke="#242522" stroke-width="7"/>
<line x1="732.0" y1="476.0" x2="749.8" y2="546.0" stroke="#242522" stroke-width="7"/>
<rect x="662.0" y="550.0" width="140" height="25" fill="#c9d3d0" opacity="0.94"/>
<text x="668.0" y="568.0" fill="#242522" font-family="sans-serif" font-size="14">船员</text>
<circle cx="883.0" cy="425.5" r="15.0" fill="none" stroke="#242522" stroke-width="5"/>
<line x1="883.0" y1="440.5" x2="883.0" y2="472.2" stroke="#242522" stroke-width="7"/>
<line x1="883.0" y1="412.2" x2="856.8" y2="452.2" stroke="#242522" stroke-width="6"/>
<line x1="883.0" y1="412.2" x2="909.2" y2="447.2" stroke="#242522" stroke-width="6"/>
<line x1="883.0" y1="472.2" x2="864.3" y2="542.2" stroke="#242522" stroke-width="7"/>
<line x1="883.0" y1="472.2" x2="901.7" y2="542.2" stroke="#242522" stroke-width="7"/>
<rect x="813.0" y="546.2" width="140" height="25" fill="#c9d3d0" opacity="0.94"/>
<text x="819.0" y="564.2" fill="#242522" font-family="sans-serif" font-size="14">洞外独眼巨人们</text>
<line x1="1035" y1="630" x2="235" y2="630" stroke="#7b6745" stroke-width="6"/>
<path d="M 235 630 l 18 -12 l 0 24 z" fill="#7b6745"/>
<text x="28" y="655" fill="#242522" font-family="sans-serif" font-size="15">MOVE: HANDHELD_CONTROLLED START</text>
<path d="M 55 125 l 20 -35 l 20 35 z" fill="none" stroke="#8d3f36" stroke-width="5"/>
<rect x="0" y="676" width="1280" height="44" fill="#171816"/>
<text x="20" y="703" fill="#f1ecdc" font-family="sans-serif" font-size="14">燃烧木桩 / 船员, 洞外独眼巨人们, 奥德修斯 / 独眼巨人洞穴 geography; exits/pressure sour…</text>
<text x="790" y="703" fill="#aca691" font-family="sans-serif" font-size="13">props=燃烧木桩,巨石,水桶; wardrobe=W-OD-10-VOYAGE-MEMORY; hmu=HMU-OD-V…</text>
</svg>
