<svg xmlns="http://www.w3.org/2000/svg" width="1280" height="720" viewBox="0 0 1280 720">
<metadata>{&quot;frame_spec&quot;: {&quot;background&quot;: &quot;旗舰甲板 geography; exits/pressure source remain legible&quot;, &quot;camera_height&quot;: &quot;2.4m&quot;, &quot;characters&quot;: [&quot;奥德修斯&quot;, &quot;欧律洛科斯&quot;, &quot;船员&quot;], &quot;composition&quot;: &quot;WS HOOK composition for 欧律洛科斯, 船员, 奥德修斯&quot;, &quot;continuity_state&quot;: &quot;props=风袋,银绳,舵桨,九枚豆; wardrobe=W-OD-11-VOYAGE-MEMORY; hmu=HMU-OD-VOYAGE-11; unit=S3; tags=boat,night,process&quot;, &quot;foreground&quot;: &quot;风袋&quot;, &quot;frame_id&quot;: &quot;EP11-S02-SH005-F01&quot;, &quot;lighting&quot;: &quot;NIGHT horizon/sky condition with practical wet specular control&quot;, &quot;midground&quot;: &quot;欧律洛科斯, 船员, 奥德修斯&quot;, &quot;movement&quot;: &quot;STATIC SINGLE&quot;, &quot;practical_element&quot;: &quot;风袋&quot;, &quot;scene_id&quot;: &quot;EP11-S02&quot;, &quot;shot_id&quot;: &quot;EP11-S02-SH005&quot;, &quot;vfx_layer&quot;: &quot;NONE&quot;}, &quot;source_frame_sha256&quot;: &quot;19d0f94225119e2d51fee94a61a0680c149c1258e657d4752d57c51cefaa09bb&quot;}</metadata>
<rect width="1280" height="720" fill="#cfcfc6"/>
<rect x="0" y="0" width="1280" height="76" fill="#171816"/>
<text x="28" y="34" fill="#f1ecdc" font-family="sans-serif" font-size="24" font-weight="700">EP11-S02-SH005-F01</text>
<text x="28" y="61" fill="#aca691" font-family="sans-serif" font-size="15">EP11-S02-SH005 · EP11-S02 · MUST · TECHNICAL</text>
<path d="M 0 610 L 320 365 L 960 365 L 1280 610" fill="none" stroke="#62645e" stroke-width="3"/>
<line x1="0" y1="365" x2="1280" y2="365" stroke="#62645e" stroke-width="2" stroke-dasharray="9 7"/>
<line x1="640" y1="365" x2="640" y2="610" stroke="#62645e" stroke-width="2" stroke-dasharray="7 7"/>
<line x1="640" y1="115" x2="640" y2="600" stroke="#242522" stroke-width="9"/>
<path d="M 110 560 Q 640 655 1170 560" fill="none" stroke="#242522" stroke-width="12"/>
<path d="M 640 145 L 965 335 L 640 335 Z" fill="none" stroke="#8d5a4e" stroke-width="4"/>
<circle cx="408.5" cy="415.2" r="16.0" fill="none" stroke="#8d5a4e" stroke-width="5"/>
<line x1="408.5" y1="431.2" x2="408.5" y2="467.0" stroke="#8d5a4e" stroke-width="7"/>
<line x1="408.5" y1="407.0" x2="380.5" y2="447.0" stroke="#8d5a4e" stroke-width="6"/>
<line x1="408.5" y1="407.0" x2="436.5" y2="442.0" stroke="#8d5a4e" stroke-width="6"/>
<line x1="408.5" y1="467.0" x2="388.5" y2="537.0" stroke="#8d5a4e" stroke-width="7"/>
<line x1="408.5" y1="467.0" x2="428.5" y2="537.0" stroke="#8d5a4e" stroke-width="7"/>
<rect x="338.5" y="541.0" width="140" height="25" fill="#cfcfc6" opacity="0.94"/>
<text x="344.5" y="559.0" fill="#242522" font-family="sans-serif" font-size="14">奥德修斯</text>
<circle cx="640.0" cy="415.2" r="16.0" fill="none" stroke="#242522" stroke-width="5"/>
<line x1="640.0" y1="431.2" x2="640.0" y2="467.0" stroke="#242522" stroke-width="7"/>
<line x1="640.0" y1="407.0" x2="612.0" y2="447.0" stroke="#242522" stroke-width="6"/>
<line x1="640.0" y1="407.0" x2="668.0" y2="442.0" stroke="#242522" stroke-width="6"/>
<line x1="640.0" y1="467.0" x2="620.0" y2="537.0" stroke="#242522" stroke-width="7"/>
<line x1="640.0" y1="467.0" x2="660.0" y2="537.0" stroke="#242522" stroke-width="7"/>
<rect x="570.0" y="541.0" width="140" height="25" fill="#cfcfc6" opacity="0.94"/>
<text x="576.0" y="559.0" fill="#242522" font-family="sans-serif" font-size="14">欧律洛科斯</text>
<circle cx="836.5" cy="441.7" r="13.3" fill="none" stroke="#242522" stroke-width="5"/>
<line x1="836.5" y1="455.0" x2="836.5" y2="480.5" stroke="#242522" stroke-width="7"/>
<line x1="836.5" y1="420.5" x2="813.2" y2="460.5" stroke="#242522" stroke-width="6"/>
<line x1="836.5" y1="420.5" x2="859.8" y2="455.5" stroke="#242522" stroke-width="6"/>
<line x1="836.5" y1="480.5" x2="819.9" y2="550.5" stroke="#242522" stroke-width="7"/>
<line x1="836.5" y1="480.5" x2="853.1" y2="550.5" stroke="#242522" stroke-width="7"/>
<rect x="766.5" y="554.5" width="140" height="25" fill="#cfcfc6" opacity="0.94"/>
<text x="772.5" y="572.5" fill="#242522" font-family="sans-serif" font-size="14">船员</text>
<line x1="235" y1="630" x2="1035" y2="630" stroke="#8d5a4e" stroke-width="6"/>
<path d="M 1035 630 l -18 -12 l 0 24 z" fill="#8d5a4e"/>
<text x="28" y="655" fill="#242522" font-family="sans-serif" font-size="15">MOVE: STATIC SINGLE</text>
<rect x="0" y="676" width="1280" height="44" fill="#171816"/>
<text x="20" y="703" fill="#f1ecdc" font-family="sans-serif" font-size="14">风袋 / 欧律洛科斯, 船员, 奥德修斯 / 旗舰甲板 geography; exits/pressure source…</text>
<text x="790" y="703" fill="#aca691" font-family="sans-serif" font-size="13">props=风袋,银绳,舵桨,九枚豆; wardrobe=W-OD-11-VOYAGE-MEMORY; hmu=HMU-OD…</text>
</svg>
