<svg xmlns="http://www.w3.org/2000/svg" width="1280" height="720" viewBox="0 0 1280 720">
<metadata>{&quot;frame_spec&quot;: {&quot;background&quot;: &quot;血沟 geography; exits/pressure source remain legible&quot;, &quot;camera_height&quot;: &quot;2.4m&quot;, &quot;characters&quot;: [&quot;奥德修斯&quot;, &quot;阿伽门农&quot;], &quot;composition&quot;: &quot;WS TECHNICAL_PLATE composition for clean/reference element for 血沟 and 奥德修斯, 阿伽门农&quot;, &quot;continuity_state&quot;: &quot;props=血沟,浴巾,宴刀影; wardrobe=W-OD-13-VOYAGE-MEMORY; hmu=HMU-OD-VOYAGE-13; unit=U09; tags=blood,underworld,vfx-medium&quot;, &quot;foreground&quot;: &quot;浴巾&quot;, &quot;frame_id&quot;: &quot;EP13-S04-SH003-F02&quot;, &quot;lighting&quot;: &quot;directionless black field; blood as sole warm reflection&quot;, &quot;midground&quot;: &quot;clean/reference element for 血沟 and 奥德修斯, 阿伽门农&quot;, &quot;movement&quot;: &quot;STATIC END&quot;, &quot;practical_element&quot;: &quot;浴巾&quot;, &quot;scene_id&quot;: &quot;EP13-S04&quot;, &quot;shot_id&quot;: &quot;EP13-S04-SH003&quot;, &quot;vfx_layer&quot;: &quot;MEDIUM&quot;}, &quot;source_frame_sha256&quot;: &quot;e97f86d54838dce3df3ee6ce2cec374c03aa8a09051fc1050cb2093dbc45503a&quot;}</metadata>
<rect width="1280" height="720" fill="#d9cfc8"/>
<rect x="0" y="0" width="1280" height="76" fill="#171816"/>
<text x="28" y="34" fill="#f1ecdc" font-family="sans-serif" font-size="24" font-weight="700">EP13-S04-SH003-F02</text>
<text x="28" y="61" fill="#aca691" font-family="sans-serif" font-size="15">EP13-S04-SH003 · EP13-S04 · MUST · TECHNICAL</text>
<path d="M 0 610 L 320 365 L 960 365 L 1280 610" fill="none" stroke="#62645e" stroke-width="3"/>
<line x1="0" y1="365" x2="1280" y2="365" stroke="#62645e" stroke-width="2" stroke-dasharray="9 7"/>
<line x1="640" y1="365" x2="640" y2="610" stroke="#62645e" stroke-width="2" stroke-dasharray="7 7"/>
<rect x="0" y="340" width="1280" height="280" fill="#272828" opacity="0.78"/>
<path d="M 180 540 Q 640 420 1100 540" fill="none" stroke="#8d5a4e" stroke-width="12"/>
<circle cx="477.3" cy="427.0" r="14.8" fill="none" stroke="#8d5a4e" stroke-width="5"/>
<line x1="477.3" y1="441.8" x2="477.3" y2="473.0" stroke="#8d5a4e" stroke-width="7"/>
<line x1="477.3" y1="413.0" x2="451.4" y2="453.0" stroke="#8d5a4e" stroke-width="6"/>
<line x1="477.3" y1="413.0" x2="503.3" y2="448.0" stroke="#8d5a4e" stroke-width="6"/>
<line x1="477.3" y1="473.0" x2="458.8" y2="543.0" stroke="#8d5a4e" stroke-width="7"/>
<line x1="477.3" y1="473.0" x2="495.9" y2="543.0" stroke="#8d5a4e" stroke-width="7"/>
<rect x="407.3" y="547.0" width="140" height="25" fill="#d9cfc8" opacity="0.94"/>
<text x="413.3" y="565.0" fill="#242522" font-family="sans-serif" font-size="14">奥德修斯</text>
<circle cx="797.7" cy="427.0" r="14.8" fill="none" stroke="#242522" stroke-width="5"/>
<line x1="797.7" y1="441.8" x2="797.7" y2="473.0" stroke="#242522" stroke-width="7"/>
<line x1="797.7" y1="413.0" x2="771.7" y2="453.0" stroke="#242522" stroke-width="6"/>
<line x1="797.7" y1="413.0" x2="823.6" y2="448.0" stroke="#242522" stroke-width="6"/>
<line x1="797.7" y1="473.0" x2="779.1" y2="543.0" stroke="#242522" stroke-width="7"/>
<line x1="797.7" y1="473.0" x2="816.2" y2="543.0" stroke="#242522" stroke-width="7"/>
<rect x="727.7" y="547.0" width="140" height="25" fill="#d9cfc8" opacity="0.94"/>
<text x="733.7" y="565.0" fill="#242522" font-family="sans-serif" font-size="14">阿伽门农</text>
<line x1="235" y1="630" x2="1035" y2="630" stroke="#8d5a4e" stroke-width="6"/>
<path d="M 1035 630 l -18 -12 l 0 24 z" fill="#8d5a4e"/>
<text x="28" y="655" fill="#242522" font-family="sans-serif" font-size="15">MOVE: STATIC END</text>
<rect x="25" y="100" width="1230" height="495" fill="none" stroke="#65546d" stroke-width="4" stroke-dasharray="14 10"/>
<text x="1010" y="125" fill="#65546d" font-family="sans-serif" font-size="15" font-weight="700">VFX LAYER / CLEAN PLATE</text>
<rect x="0" y="676" width="1280" height="44" fill="#171816"/>
<text x="20" y="703" fill="#f1ecdc" font-family="sans-serif" font-size="14">浴巾 / clean/reference element for 血沟 and 奥德修斯, 阿伽门农 / 血沟 geography; exits/pressure source r…</text>
<text x="790" y="703" fill="#aca691" font-family="sans-serif" font-size="13">props=血沟,浴巾,宴刀影; wardrobe=W-OD-13-VOYAGE-MEMORY; hmu=HMU-OD-VO…</text>
</svg>
