<svg xmlns="http://www.w3.org/2000/svg" width="1280" height="720" viewBox="0 0 1280 720">
<metadata>{&quot;frame_spec&quot;: {&quot;background&quot;: &quot;血沟 geography; exits/pressure source remain legible&quot;, &quot;camera_height&quot;: &quot;2.4m&quot;, &quot;characters&quot;: [&quot;奥德修斯&quot;, &quot;安提克勒娅&quot;], &quot;composition&quot;: &quot;WS TECHNICAL_PLATE composition for clean/reference element for 血沟 and 奥德修斯, 安提克勒娅&quot;, &quot;continuity_state&quot;: &quot;props=血沟,织梭影,伊萨卡泥土; wardrobe=W-OD-13-VOYAGE-MEMORY; hmu=HMU-OD-VOYAGE-13; unit=U09; tags=emotion,underworld,vfx-medium&quot;, &quot;foreground&quot;: &quot;血沟&quot;, &quot;frame_id&quot;: &quot;EP13-S03-SH003-F01&quot;, &quot;lighting&quot;: &quot;directionless black field; blood as sole warm reflection&quot;, &quot;midground&quot;: &quot;clean/reference element for 血沟 and 奥德修斯, 安提克勒娅&quot;, &quot;movement&quot;: &quot;STATIC START&quot;, &quot;practical_element&quot;: &quot;血沟&quot;, &quot;scene_id&quot;: &quot;EP13-S03&quot;, &quot;shot_id&quot;: &quot;EP13-S03-SH003&quot;, &quot;vfx_layer&quot;: &quot;MEDIUM&quot;}, &quot;source_frame_sha256&quot;: &quot;2d2b7edd62fa3a9bb4bc70c378463cfec60c14a830b796c87cd78723a0b42730&quot;}</metadata>
<rect width="1280" height="720" fill="#d9cfc8"/>
<rect x="0" y="0" width="1280" height="76" fill="#171816"/>
<text x="28" y="34" fill="#f1ecdc" font-family="sans-serif" font-size="24" font-weight="700">EP13-S03-SH003-F01</text>
<text x="28" y="61" fill="#aca691" font-family="sans-serif" font-size="15">EP13-S03-SH003 · EP13-S03 · MUST · TECHNICAL</text>
<path d="M 0 610 L 320 365 L 960 365 L 1280 610" fill="none" stroke="#62645e" stroke-width="3"/>
<line x1="0" y1="365" x2="1280" y2="365" stroke="#62645e" stroke-width="2" stroke-dasharray="9 7"/>
<line x1="640" y1="365" x2="640" y2="610" stroke="#62645e" stroke-width="2" stroke-dasharray="7 7"/>
<rect x="0" y="340" width="1280" height="280" fill="#272828" opacity="0.78"/>
<path d="M 180 540 Q 640 420 1100 540" fill="none" stroke="#7b6745" stroke-width="12"/>
<circle cx="472.3" cy="440.3" r="13.5" fill="none" stroke="#7b6745" stroke-width="5"/>
<line x1="472.3" y1="453.7" x2="472.3" y2="479.8" stroke="#7b6745" stroke-width="7"/>
<line x1="472.3" y1="419.8" x2="448.8" y2="459.8" stroke="#7b6745" stroke-width="6"/>
<line x1="472.3" y1="419.8" x2="495.9" y2="454.8" stroke="#7b6745" stroke-width="6"/>
<line x1="472.3" y1="479.8" x2="455.5" y2="549.8" stroke="#7b6745" stroke-width="7"/>
<line x1="472.3" y1="479.8" x2="489.2" y2="549.8" stroke="#7b6745" stroke-width="7"/>
<rect x="402.3" y="553.8" width="140" height="25" fill="#d9cfc8" opacity="0.94"/>
<text x="408.3" y="571.8" fill="#242522" font-family="sans-serif" font-size="14">奥德修斯</text>
<circle cx="793.7" cy="450.6" r="12.4" fill="none" stroke="#242522" stroke-width="5"/>
<line x1="793.7" y1="463.0" x2="793.7" y2="485.0" stroke="#242522" stroke-width="7"/>
<line x1="793.7" y1="425.0" x2="772.0" y2="465.0" stroke="#242522" stroke-width="6"/>
<line x1="793.7" y1="425.0" x2="815.4" y2="460.0" stroke="#242522" stroke-width="6"/>
<line x1="793.7" y1="485.0" x2="778.2" y2="555.0" stroke="#242522" stroke-width="7"/>
<line x1="793.7" y1="485.0" x2="809.2" y2="555.0" stroke="#242522" stroke-width="7"/>
<rect x="723.7" y="559.0" width="140" height="25" fill="#d9cfc8" opacity="0.94"/>
<text x="729.7" y="577.0" fill="#242522" font-family="sans-serif" font-size="14">安提克勒娅</text>
<line x1="1035" y1="630" x2="235" y2="630" stroke="#7b6745" stroke-width="6"/>
<path d="M 235 630 l 18 -12 l 0 24 z" fill="#7b6745"/>
<text x="28" y="655" fill="#242522" font-family="sans-serif" font-size="15">MOVE: STATIC START</text>
<rect x="25" y="100" width="1230" height="495" fill="none" stroke="#65546d" stroke-width="4" stroke-dasharray="14 10"/>
<text x="1010" y="125" fill="#65546d" font-family="sans-serif" font-size="15" font-weight="700">VFX LAYER / CLEAN PLATE</text>
<rect x="0" y="676" width="1280" height="44" fill="#171816"/>
<text x="20" y="703" fill="#f1ecdc" font-family="sans-serif" font-size="14">血沟 / clean/reference element for 血沟 and 奥德修斯, 安提克勒娅 / 血沟 geography; exits/pressure source r…</text>
<text x="790" y="703" fill="#aca691" font-family="sans-serif" font-size="13">props=血沟,织梭影,伊萨卡泥土; wardrobe=W-OD-13-VOYAGE-MEMORY; hmu=HMU-OD…</text>
</svg>
