<svg xmlns="http://www.w3.org/2000/svg" width="1280" height="720" viewBox="0 0 1280 720">
<metadata>{&quot;frame_spec&quot;: {&quot;background&quot;: &quot;血沟 geography; exits/pressure source remain legible&quot;, &quot;camera_height&quot;: &quot;1.4m&quot;, &quot;characters&quot;: [&quot;奥德修斯&quot;, &quot;安提克勒娅&quot;], &quot;composition&quot;: &quot;MCU REVERSAL composition for 安提克勒娅, 奥德修斯&quot;, &quot;continuity_state&quot;: &quot;props=血沟,织梭影,伊萨卡泥土; wardrobe=W-OD-13-VOYAGE-MEMORY; hmu=HMU-OD-VOYAGE-13; unit=U09; tags=emotion,underworld,vfx-medium&quot;, &quot;foreground&quot;: &quot;血沟&quot;, &quot;frame_id&quot;: &quot;EP13-S03-SH006-F01&quot;, &quot;lighting&quot;: &quot;directionless black field; blood as sole warm reflection&quot;, &quot;midground&quot;: &quot;安提克勒娅, 奥德修斯&quot;, &quot;movement&quot;: &quot;PUSH_PULL START&quot;, &quot;practical_element&quot;: &quot;血沟&quot;, &quot;scene_id&quot;: &quot;EP13-S03&quot;, &quot;shot_id&quot;: &quot;EP13-S03-SH006&quot;, &quot;vfx_layer&quot;: &quot;MEDIUM&quot;}, &quot;source_frame_sha256&quot;: &quot;205b713ab92d8af8f5ce2a88539c51203993601b213ef0a0d272d25cfdf16827&quot;}</metadata>
<rect width="1280" height="720" fill="#c9d3d0"/>
<rect x="0" y="0" width="1280" height="76" fill="#171816"/>
<text x="28" y="34" fill="#f1ecdc" font-family="sans-serif" font-size="24" font-weight="700">EP13-S03-SH006-F01</text>
<text x="28" y="61" fill="#aca691" font-family="sans-serif" font-size="15">EP13-S03-SH006 · EP13-S03 · MUST · TECHNICAL</text>
<path d="M 0 610 L 320 365 L 960 365 L 1280 610" fill="none" stroke="#62645e" stroke-width="3"/>
<line x1="0" y1="365" x2="1280" y2="365" stroke="#62645e" stroke-width="2" stroke-dasharray="9 7"/>
<line x1="640" y1="365" x2="640" y2="610" stroke="#62645e" stroke-width="2" stroke-dasharray="7 7"/>
<rect x="0" y="340" width="1280" height="280" fill="#272828" opacity="0.78"/>
<path d="M 180 540 Q 640 420 1100 540" fill="none" stroke="#5e7478" stroke-width="12"/>
<circle cx="492.3" cy="318.2" r="35.6" fill="none" stroke="#5e7478" stroke-width="5"/>
<line x1="492.3" y1="353.9" x2="492.3" y2="464.0" stroke="#5e7478" stroke-width="7"/>
<line x1="492.3" y1="404.0" x2="430.0" y2="444.0" stroke="#5e7478" stroke-width="6"/>
<line x1="492.3" y1="404.0" x2="554.7" y2="439.0" stroke="#5e7478" stroke-width="6"/>
<line x1="492.3" y1="464.0" x2="447.8" y2="534.0" stroke="#5e7478" stroke-width="7"/>
<line x1="492.3" y1="464.0" x2="536.9" y2="534.0" stroke="#5e7478" stroke-width="7"/>
<rect x="422.3" y="538.0" width="140" height="25" fill="#c9d3d0" opacity="0.94"/>
<text x="428.3" y="556.0" fill="#242522" font-family="sans-serif" font-size="14">奥德修斯</text>
<circle cx="809.7" cy="345.9" r="31.8" fill="none" stroke="#242522" stroke-width="5"/>
<line x1="809.7" y1="377.6" x2="809.7" y2="473.0" stroke="#242522" stroke-width="7"/>
<line x1="809.7" y1="413.0" x2="754.1" y2="453.0" stroke="#242522" stroke-width="6"/>
<line x1="809.7" y1="413.0" x2="865.2" y2="448.0" stroke="#242522" stroke-width="6"/>
<line x1="809.7" y1="473.0" x2="770.0" y2="543.0" stroke="#242522" stroke-width="7"/>
<line x1="809.7" y1="473.0" x2="849.4" y2="543.0" stroke="#242522" stroke-width="7"/>
<rect x="739.7" y="547.0" width="140" height="25" fill="#c9d3d0" opacity="0.94"/>
<text x="745.7" y="565.0" fill="#242522" font-family="sans-serif" font-size="14">安提克勒娅</text>
<line x1="235" y1="630" x2="1035" y2="630" stroke="#5e7478" stroke-width="6"/>
<path d="M 1035 630 l -18 -12 l 0 24 z" fill="#5e7478"/>
<text x="28" y="655" fill="#242522" font-family="sans-serif" font-size="15">MOVE: PUSH_PULL START</text>
<rect x="25" y="100" width="1230" height="495" fill="none" stroke="#65546d" stroke-width="4" stroke-dasharray="14 10"/>
<text x="1010" y="125" fill="#65546d" font-family="sans-serif" font-size="15" font-weight="700">VFX LAYER / CLEAN PLATE</text>
<rect x="0" y="676" width="1280" height="44" fill="#171816"/>
<text x="20" y="703" fill="#f1ecdc" font-family="sans-serif" font-size="14">血沟 / 安提克勒娅, 奥德修斯 / 血沟 geography; exits/pressure source r…</text>
<text x="790" y="703" fill="#aca691" font-family="sans-serif" font-size="13">props=血沟,织梭影,伊萨卡泥土; wardrobe=W-OD-13-VOYAGE-MEMORY; hmu=HMU-OD…</text>
</svg>
