<svg xmlns="http://www.w3.org/2000/svg" width="1280" height="720" viewBox="0 0 1280 720">
<metadata>{&quot;frame_spec&quot;: {&quot;background&quot;: &quot;宁芙洞穴／外景·伊萨卡山路 geography; exits/pressure source remain legible&quot;, &quot;camera_height&quot;: &quot;1.4m&quot;, &quot;characters&quot;: [&quot;奥德修斯&quot;, &quot;雅典娜&quot;], &quot;composition&quot;: &quot;MS2 WANT composition for 雅典娜, 奥德修斯&quot;, &quot;continuity_state&quot;: &quot;props=礼物箱,洞石门,破斗篷,牧杖; wardrobe=W-OD-16-ITHACA-ARRIVAL-DISGUISE,W-AT-DIVINE; hmu=HMU-OD-OLD-BEGGAR-SCAR-COVER,HMU-AT-DISGUISE-EYELIGHT-CONTINUITY,HMU-SPECIAL-PROSTHETIC; unit=U08; tags=cave-adaptable,divine-medium,ending-hook,makeup&quot;, &quot;foreground&quot;: &quot;洞石门&quot;, &quot;frame_id&quot;: &quot;EP16-S05-SH002-F02&quot;, &quot;lighting&quot;: &quot;DAY motivated source; preserve unit color and practical texture&quot;, &quot;midground&quot;: &quot;雅典娜, 奥德修斯&quot;, &quot;movement&quot;: &quot;DOLLY_TRACK END&quot;, &quot;practical_element&quot;: &quot;洞石门&quot;, &quot;scene_id&quot;: &quot;EP16-S05&quot;, &quot;shot_id&quot;: &quot;EP16-S05-SH002&quot;, &quot;vfx_layer&quot;: &quot;NONE&quot;}, &quot;source_frame_sha256&quot;: &quot;0f4360ce4dc280ac067800f1b5cd66d53dcb71761132a71267d59016aad1306d&quot;}</metadata>
<rect width="1280" height="720" fill="#c9d3d0"/>
<rect x="0" y="0" width="1280" height="76" fill="#171816"/>
<text x="28" y="34" fill="#f1ecdc" font-family="sans-serif" font-size="24" font-weight="700">EP16-S05-SH002-F02</text>
<text x="28" y="61" fill="#aca691" font-family="sans-serif" font-size="15">EP16-S05-SH002 · EP16-S05 · MUST · TECHNICAL</text>
<path d="M 0 610 L 320 365 L 960 365 L 1280 610" fill="none" stroke="#62645e" stroke-width="3"/>
<line x1="0" y1="365" x2="1280" y2="365" stroke="#62645e" stroke-width="2" stroke-dasharray="9 7"/>
<line x1="640" y1="365" x2="640" y2="610" stroke="#62645e" stroke-width="2" stroke-dasharray="7 7"/>
<rect x="80" y="175" width="170" height="375" fill="none" stroke="#242522" stroke-width="5"/>
<rect x="1030" y="175" width="170" height="375" fill="none" stroke="#242522" stroke-width="5"/>
<circle cx="474.3" cy="419.8" r="18.4" fill="none" stroke="#7b6745" stroke-width="5"/>
<line x1="474.3" y1="438.1" x2="474.3" y2="482.8" stroke="#7b6745" stroke-width="7"/>
<line x1="474.3" y1="422.8" x2="442.2" y2="462.8" stroke="#7b6745" stroke-width="6"/>
<line x1="474.3" y1="422.8" x2="506.5" y2="457.8" stroke="#7b6745" stroke-width="6"/>
<line x1="474.3" y1="482.8" x2="451.4" y2="552.8" stroke="#7b6745" stroke-width="7"/>
<line x1="474.3" y1="482.8" x2="497.3" y2="552.8" stroke="#7b6745" stroke-width="7"/>
<rect x="404.3" y="556.8" width="140" height="25" fill="#c9d3d0" opacity="0.94"/>
<text x="410.3" y="574.8" fill="#242522" font-family="sans-serif" font-size="14">奥德修斯</text>
<circle cx="773.7" cy="373.4" r="24.0" fill="none" stroke="#242522" stroke-width="5"/>
<line x1="773.7" y1="397.3" x2="773.7" y2="463.2" stroke="#242522" stroke-width="7"/>
<line x1="773.7" y1="403.2" x2="731.7" y2="443.2" stroke="#242522" stroke-width="6"/>
<line x1="773.7" y1="403.2" x2="815.6" y2="438.2" stroke="#242522" stroke-width="6"/>
<line x1="773.7" y1="463.2" x2="743.7" y2="533.2" stroke="#242522" stroke-width="7"/>
<line x1="773.7" y1="463.2" x2="803.6" y2="533.2" stroke="#242522" stroke-width="7"/>
<rect x="703.7" y="537.2" width="140" height="25" fill="#c9d3d0" opacity="0.94"/>
<text x="709.7" y="555.2" fill="#242522" font-family="sans-serif" font-size="14">雅典娜</text>
<line x1="235" y1="630" x2="1035" y2="630" stroke="#7b6745" stroke-width="6"/>
<path d="M 1035 630 l -18 -12 l 0 24 z" fill="#7b6745"/>
<text x="28" y="655" fill="#242522" font-family="sans-serif" font-size="15">MOVE: DOLLY_TRACK END</text>
<rect x="0" y="676" width="1280" height="44" fill="#171816"/>
<text x="20" y="703" fill="#f1ecdc" font-family="sans-serif" font-size="14">洞石门 / 雅典娜, 奥德修斯 / 宁芙洞穴／外景·伊萨卡山路 geography; exits/pressu…</text>
<text x="790" y="703" fill="#aca691" font-family="sans-serif" font-size="13">props=礼物箱,洞石门,破斗篷,牧杖; wardrobe=W-OD-16-ITHACA-ARRIVAL-DISGUISE…</text>
</svg>
