<svg xmlns="http://www.w3.org/2000/svg" width="1280" height="720" viewBox="0 0 1280 720">
<metadata>{&quot;frame_spec&quot;: {&quot;background&quot;: &quot;封闭厅堂 geography; exits/pressure source remain legible&quot;, &quot;camera_height&quot;: &quot;2.4m&quot;, &quot;characters&quot;: [&quot;忒勒马科斯&quot;, &quot;佩涅洛佩&quot;, &quot;奥德修斯/乞丐&quot;, &quot;安提诺俄斯&quot;], &quot;composition&quot;: &quot;WS GEOGRAPHY composition for 封闭厅堂 with 忒勒马科斯, 佩涅洛佩, 奥德修斯/乞丐&quot;, &quot;continuity_state&quot;: &quot;props=奥德修斯弓,脚位沙印; wardrobe=W-OD-20-BEGGAR-HALL,W-PE-25-CONTEST-CUSTODY,W-TE-19-SECRET-HEIR; hmu=HMU-OD-OLD-BEGGAR-SCAR-COVER,HMU-TE-AGE-PROGRESSION,HMU-PE-HOUSEHOLD-PRESSURE; unit=S1; tags=character-arc,crowd,hall-standing-set,hero-prop&quot;, &quot;foreground&quot;: &quot;奥德修斯弓&quot;, &quot;frame_id&quot;: &quot;EP25-S02-SH001-F01&quot;, &quot;lighting&quot;: &quot;DAY motivated Mediterranean window/fire; architecture and evidence readable&quot;, &quot;midground&quot;: &quot;封闭厅堂 with 忒勒马科斯, 佩涅洛佩, 奥德修斯/乞丐&quot;, &quot;movement&quot;: &quot;DOLLY_TRACK START&quot;, &quot;practical_element&quot;: &quot;奥德修斯弓&quot;, &quot;scene_id&quot;: &quot;EP25-S02&quot;, &quot;shot_id&quot;: &quot;EP25-S02-SH001&quot;, &quot;vfx_layer&quot;: &quot;NONE&quot;}, &quot;source_frame_sha256&quot;: &quot;30c8388578ff684bb10386c2bc04c1a3aa99164bdb56a46d45c01c9290fe2610&quot;}</metadata>
<rect width="1280" height="720" fill="#c9d3d0"/>
<rect x="0" y="0" width="1280" height="76" fill="#171816"/>
<text x="28" y="34" fill="#f1ecdc" font-family="sans-serif" font-size="24" font-weight="700">EP25-S02-SH001-F01</text>
<text x="28" y="61" fill="#aca691" font-family="sans-serif" font-size="15">EP25-S02-SH001 · EP25-S02 · MUST · TECHNICAL</text>
<path d="M 0 610 L 320 365 L 960 365 L 1280 610" fill="none" stroke="#62645e" stroke-width="3"/>
<line x1="0" y1="365" x2="1280" y2="365" stroke="#62645e" stroke-width="2" stroke-dasharray="9 7"/>
<line x1="640" y1="365" x2="640" y2="610" stroke="#62645e" stroke-width="2" stroke-dasharray="7 7"/>
<rect x="368" y="332" width="24" height="205" fill="none" stroke="#242522" stroke-width="5"/>
<rect x="488" y="332" width="24" height="205" fill="none" stroke="#242522" stroke-width="5"/>
<rect x="768" y="332" width="24" height="205" fill="none" stroke="#242522" stroke-width="5"/>
<rect x="888" y="332" width="24" height="205" fill="none" stroke="#242522" stroke-width="5"/>
<rect x="580" y="105" width="120" height="180" fill="none" stroke="#242522" stroke-width="5"/>
<text x="616" y="132" fill="#242522" font-family="sans-serif" font-size="14">N0</text>
<rect x="1130" y="315" width="70" height="140" fill="none" stroke="#242522" stroke-width="5"/>
<text x="1150" y="340" fill="#242522" font-family="sans-serif" font-size="14">E0</text>
<circle cx="940" cy="500" r="50" fill="none" stroke="#8d5a4e" stroke-width="5"/><text x="930" y="505" fill="#242522" font-family="sans-serif" font-size="14">H0</text>
<g transform="translate(1050 458)"><rect x="0" y="0" width="188" height="210" fill="#f4f1e8" stroke="#30322f" stroke-width="3"/><text x="78" y="16" font-family="sans-serif" font-size="12" fill="#30322f">N ↑</text><rect x="74" y="0" width="40" height="9" fill="#62645e"/><rect x="184" y="75" width="8" height="26" fill="#62645e"/><rect x="18" y="184" width="25" height="10" fill="#62645e"/><circle cx="58" cy="145" r="7" fill="#777"/><circle cx="130" cy="145" r="7" fill="#777"/><circle cx="58" cy="70" r="7" fill="#777"/><circle cx="130" cy="70" r="7" fill="#777"/><circle cx="150" cy="98" r="16" fill="none" stroke="#8d5a4e" stroke-width="3"/><line x1="94" y1="175" x2="94" y2="25" stroke="#a78547" stroke-width="3" stroke-dasharray="5 4"/><text x="8" y="205" font-family="sans-serif" font-size="11" fill="#30322f">EP25-S02</text></g>
<circle cx="404.0" cy="429.9" r="14.5" fill="none" stroke="#8d5a4e" stroke-width="5"/>
<line x1="404.0" y1="444.5" x2="404.0" y2="474.5" stroke="#8d5a4e" stroke-width="7"/>
<line x1="404.0" y1="414.5" x2="378.6" y2="454.5" stroke="#8d5a4e" stroke-width="6"/>
<line x1="404.0" y1="414.5" x2="429.4" y2="449.5" stroke="#8d5a4e" stroke-width="6"/>
<line x1="404.0" y1="474.5" x2="385.9" y2="544.5" stroke="#8d5a4e" stroke-width="7"/>
<line x1="404.0" y1="474.5" x2="422.1" y2="544.5" stroke="#8d5a4e" stroke-width="7"/>
<rect x="334.0" y="548.5" width="140" height="25" fill="#c9d3d0" opacity="0.94"/>
<text x="340.0" y="566.5" fill="#242522" font-family="sans-serif" font-size="14">忒勒马科斯</text>
<circle cx="582.0" cy="440.3" r="13.5" fill="none" stroke="#242522" stroke-width="5"/>
<line x1="582.0" y1="453.7" x2="582.0" y2="479.8" stroke="#242522" stroke-width="7"/>
<line x1="582.0" y1="419.8" x2="558.5" y2="459.8" stroke="#242522" stroke-width="6"/>
<line x1="582.0" y1="419.8" x2="605.5" y2="454.8" stroke="#242522" stroke-width="6"/>
<line x1="582.0" y1="479.8" x2="565.2" y2="549.8" stroke="#242522" stroke-width="7"/>
<line x1="582.0" y1="479.8" x2="598.8" y2="549.8" stroke="#242522" stroke-width="7"/>
<rect x="512.0" y="553.8" width="140" height="25" fill="#c9d3d0" opacity="0.94"/>
<text x="518.0" y="571.8" fill="#242522" font-family="sans-serif" font-size="14">佩涅洛佩</text>
<circle cx="710.0" cy="441.7" r="13.3" fill="none" stroke="#242522" stroke-width="5"/>
<line x1="710.0" y1="455.0" x2="710.0" y2="480.5" stroke="#242522" stroke-width="7"/>
<line x1="710.0" y1="420.5" x2="686.7" y2="460.5" stroke="#242522" stroke-width="6"/>
<line x1="710.0" y1="420.5" x2="733.3" y2="455.5" stroke="#242522" stroke-width="6"/>
<line x1="710.0" y1="480.5" x2="693.4" y2="550.5" stroke="#242522" stroke-width="7"/>
<line x1="710.0" y1="480.5" x2="726.6" y2="550.5" stroke="#242522" stroke-width="7"/>
<rect x="640.0" y="554.5" width="140" height="25" fill="#c9d3d0" opacity="0.94"/>
<text x="646.0" y="572.5" fill="#242522" font-family="sans-serif" font-size="14">奥德修斯/乞丐</text>
<circle cx="869.0" cy="449.1" r="12.5" fill="none" stroke="#242522" stroke-width="5"/>
<line x1="869.0" y1="461.7" x2="869.0" y2="484.2" stroke="#242522" stroke-width="7"/>
<line x1="869.0" y1="424.2" x2="847.0" y2="464.2" stroke="#242522" stroke-width="6"/>
<line x1="869.0" y1="424.2" x2="891.0" y2="459.2" stroke="#242522" stroke-width="6"/>
<line x1="869.0" y1="484.2" x2="853.3" y2="554.2" stroke="#242522" stroke-width="7"/>
<line x1="869.0" y1="484.2" x2="884.7" y2="554.2" stroke="#242522" stroke-width="7"/>
<rect x="799.0" y="558.2" width="140" height="25" fill="#c9d3d0" opacity="0.94"/>
<text x="805.0" y="576.2" fill="#242522" font-family="sans-serif" font-size="14">安提诺俄斯</text>
<line x1="235" y1="630" x2="1035" y2="630" stroke="#8d5a4e" stroke-width="6"/>
<path d="M 1035 630 l -18 -12 l 0 24 z" fill="#8d5a4e"/>
<text x="28" y="655" fill="#242522" font-family="sans-serif" font-size="15">MOVE: DOLLY_TRACK START</text>
<rect x="0" y="676" width="1280" height="44" fill="#171816"/>
<text x="20" y="703" fill="#f1ecdc" font-family="sans-serif" font-size="14">奥德修斯弓 / 封闭厅堂 with 忒勒马科斯, 佩涅洛佩, 奥德修斯/乞丐 / 封闭厅堂 geography; exits/pressure source…</text>
<text x="790" y="703" fill="#aca691" font-family="sans-serif" font-size="13">props=奥德修斯弓,脚位沙印; wardrobe=W-OD-20-BEGGAR-HALL,W-PE-25-CONTEST…</text>
</svg>
