<svg xmlns="http://www.w3.org/2000/svg" width="1280" height="720" viewBox="0 0 1280 720">
<metadata>{&quot;frame_spec&quot;: {&quot;background&quot;: &quot;伊萨卡田野／内景·婚房 geography; exits/pressure source remain legible&quot;, &quot;camera_height&quot;: &quot;1.4m&quot;, &quot;characters&quot;: [&quot;奥德修斯&quot;, &quot;忒勒马科斯&quot;, &quot;拉厄耳忒斯&quot;, &quot;雅典娜&quot;], &quot;composition&quot;: &quot;MCU CONSEQUENCE composition for 伊萨卡亲族, 佩涅洛佩, 奥德修斯&quot;, &quot;continuity_state&quot;: &quot;props=落地长矛,和平石,橄榄树床,紫线; wardrobe=W-OD-30-RETURNED-FIELD,W-PE-30-CIVIC-RESTORATION,W-TE-30-CIVIC-AUTHORITY,W-AT-DIVINE; hmu=HMU-OD-RETURNED-FIELD,HMU-TE-BATTLE-ARM-WOUND,HMU-PE-HOUSEHOLD-PRESSURE,HMU-AT-DISGUISE-EYELIGHT-CONTINUITY; unit=U10; tags=civic-closure,crowd,divine-low,field,final-image&quot;, &quot;foreground&quot;: &quot;落地长矛&quot;, &quot;frame_id&quot;: &quot;EP30-S05-SH005-F01&quot;, &quot;lighting&quot;: &quot;NIGHT motivated source; preserve unit color and practical texture&quot;, &quot;midground&quot;: &quot;伊萨卡亲族, 佩涅洛佩, 奥德修斯&quot;, &quot;movement&quot;: &quot;STATIC SINGLE&quot;, &quot;practical_element&quot;: &quot;落地长矛&quot;, &quot;scene_id&quot;: &quot;EP30-S05&quot;, &quot;shot_id&quot;: &quot;EP30-S05-SH005&quot;, &quot;vfx_layer&quot;: &quot;LOW&quot;}, &quot;source_frame_sha256&quot;: &quot;0d84d92d800348a588445951ac0dbfb0a3575b1028301a16c254bbc739f73dbb&quot;}</metadata>
<rect width="1280" height="720" fill="#cac7be"/>
<rect x="0" y="0" width="1280" height="76" fill="#171816"/>
<text x="28" y="34" fill="#f1ecdc" font-family="sans-serif" font-size="24" font-weight="700">EP30-S05-SH005-F01</text>
<text x="28" y="61" fill="#aca691" font-family="sans-serif" font-size="15">EP30-S05-SH005 · EP30-S05 · MUST · TECHNICAL</text>
<path d="M 0 610 L 320 365 L 960 365 L 1280 610" fill="none" stroke="#62645e" stroke-width="3"/>
<line x1="0" y1="365" x2="1280" y2="365" stroke="#62645e" stroke-width="2" stroke-dasharray="9 7"/>
<line x1="640" y1="365" x2="640" y2="610" stroke="#62645e" stroke-width="2" stroke-dasharray="7 7"/>
<rect x="80" y="175" width="170" height="375" fill="none" stroke="#242522" stroke-width="5"/>
<rect x="1030" y="175" width="170" height="375" fill="none" stroke="#242522" stroke-width="5"/>
<circle cx="396.0" cy="322.8" r="35.0" fill="none" stroke="#65546d" stroke-width="5"/>
<line x1="396.0" y1="357.8" x2="396.0" y2="465.5" stroke="#65546d" stroke-width="7"/>
<line x1="396.0" y1="405.5" x2="334.8" y2="445.5" stroke="#65546d" stroke-width="6"/>
<line x1="396.0" y1="405.5" x2="457.2" y2="440.5" stroke="#65546d" stroke-width="6"/>
<line x1="396.0" y1="465.5" x2="352.3" y2="535.5" stroke="#65546d" stroke-width="7"/>
<line x1="396.0" y1="465.5" x2="439.7" y2="535.5" stroke="#65546d" stroke-width="7"/>
<rect x="326.0" y="539.5" width="140" height="25" fill="#cac7be" opacity="0.94"/>
<text x="332.0" y="557.5" fill="#242522" font-family="sans-serif" font-size="14">奥德修斯</text>
<circle cx="584.0" cy="336.6" r="33.0" fill="none" stroke="#242522" stroke-width="5"/>
<line x1="584.0" y1="369.7" x2="584.0" y2="470.0" stroke="#242522" stroke-width="7"/>
<line x1="584.0" y1="410.0" x2="526.2" y2="450.0" stroke="#242522" stroke-width="6"/>
<line x1="584.0" y1="410.0" x2="641.8" y2="445.0" stroke="#242522" stroke-width="6"/>
<line x1="584.0" y1="470.0" x2="542.7" y2="540.0" stroke="#242522" stroke-width="7"/>
<line x1="584.0" y1="470.0" x2="625.3" y2="540.0" stroke="#242522" stroke-width="7"/>
<rect x="514.0" y="544.0" width="140" height="25" fill="#cac7be" opacity="0.94"/>
<text x="520.0" y="562.0" fill="#242522" font-family="sans-serif" font-size="14">忒勒马科斯</text>
<circle cx="714.0" cy="345.9" r="31.8" fill="none" stroke="#242522" stroke-width="5"/>
<line x1="714.0" y1="377.6" x2="714.0" y2="473.0" stroke="#242522" stroke-width="7"/>
<line x1="714.0" y1="413.0" x2="658.4" y2="453.0" stroke="#242522" stroke-width="6"/>
<line x1="714.0" y1="413.0" x2="769.6" y2="448.0" stroke="#242522" stroke-width="6"/>
<line x1="714.0" y1="473.0" x2="674.3" y2="543.0" stroke="#242522" stroke-width="7"/>
<line x1="714.0" y1="473.0" x2="753.7" y2="543.0" stroke="#242522" stroke-width="7"/>
<rect x="644.0" y="547.0" width="140" height="25" fill="#cac7be" opacity="0.94"/>
<text x="650.0" y="565.0" fill="#242522" font-family="sans-serif" font-size="14">拉厄耳忒斯</text>
<circle cx="906.0" cy="382.7" r="26.6" fill="none" stroke="#242522" stroke-width="5"/>
<line x1="906.0" y1="409.3" x2="906.0" y2="485.0" stroke="#242522" stroke-width="7"/>
<line x1="906.0" y1="425.0" x2="859.5" y2="465.0" stroke="#242522" stroke-width="6"/>
<line x1="906.0" y1="425.0" x2="952.5" y2="460.0" stroke="#242522" stroke-width="6"/>
<line x1="906.0" y1="485.0" x2="872.8" y2="555.0" stroke="#242522" stroke-width="7"/>
<line x1="906.0" y1="485.0" x2="939.2" y2="555.0" stroke="#242522" stroke-width="7"/>
<rect x="836.0" y="559.0" width="140" height="25" fill="#cac7be" opacity="0.94"/>
<text x="842.0" y="577.0" fill="#242522" font-family="sans-serif" font-size="14">雅典娜</text>
<line x1="1035" y1="630" x2="235" y2="630" stroke="#65546d" stroke-width="6"/>
<path d="M 235 630 l 18 -12 l 0 24 z" fill="#65546d"/>
<text x="28" y="655" fill="#242522" font-family="sans-serif" font-size="15">MOVE: STATIC SINGLE</text>
<rect x="25" y="100" width="1230" height="495" fill="none" stroke="#65546d" stroke-width="4" stroke-dasharray="14 10"/>
<text x="1010" y="125" fill="#65546d" font-family="sans-serif" font-size="15" font-weight="700">VFX LAYER / CLEAN PLATE</text>
<rect x="0" y="676" width="1280" height="44" fill="#171816"/>
<text x="20" y="703" fill="#f1ecdc" font-family="sans-serif" font-size="14">落地长矛 / 伊萨卡亲族, 佩涅洛佩, 奥德修斯 / 伊萨卡田野／内景·婚房 geography; exits/pressure…</text>
<text x="790" y="703" fill="#aca691" font-family="sans-serif" font-size="13">props=落地长矛,和平石,橄榄树床,紫线; wardrobe=W-OD-30-RETURNED-FIELD,W-PE-3…</text>
</svg>
